<?xml version="1.0" standalone="no"?>
<!DOCTYPE svg PUBLIC "-//W3C//DTD SVG 20010904//EN"
 "http://www.w3.org/TR/2001/REC-SVG-20010904/DTD/svg10.dtd">
<svg version="1.0" xmlns="http://www.w3.org/2000/svg"
 width="700.000000pt" height="700.000000pt" viewBox="0 0 700.000000 700.000000"
 preserveAspectRatio="xMidYMid meet">
<metadata>
Created by potrace 1.14, written by Peter Selinger 2001-2017
</metadata>
<g transform="translate(0.000000,700.000000) scale(0.100000,-0.100000)"
fill="#000000" stroke="none">
<path d="M3434 6370 c-7 -46 -10 -67 -18 -110 -3 -14 -8 -43 -11 -65 -3 -22
-12 -80 -21 -130 -14 -87 -20 -121 -29 -175 -2 -14 -11 -68 -20 -120 -20 -118
-20 -118 -45 -270 -11 -69 -22 -136 -25 -150 -2 -14 -20 -124 -40 -245 -20
-121 -38 -231 -41 -245 -2 -14 -11 -68 -20 -120 -17 -108 -22 -135 -28 -170
-3 -14 -8 -41 -10 -60 -3 -19 -7 -44 -10 -55 -2 -11 -10 -60 -17 -109 -7 -48
-18 -90 -24 -92 -5 -2 -75 21 -155 52 -80 30 -289 110 -465 176 -176 67 -358
136 -405 153 -47 18 -195 74 -330 124 -135 51 -254 96 -265 101 -11 5 -99 39
-195 75 l-175 66 -22 -28 c-27 -33 -40 -83 -24 -92 12 -8 25 -19 331 -279 211
-181 453 -386 620 -528 204 -173 327 -278 355 -303 17 -14 59 -51 95 -81 36
-30 67 -57 70 -60 3 -3 32 -27 65 -55 96 -80 93 -75 65 -97 -14 -11 -39 -32
-55 -46 -17 -15 -75 -65 -130 -112 -55 -47 -102 -87 -105 -90 -3 -3 -68 -59
-145 -125 -168 -143 -176 -150 -240 -207 -27 -24 -178 -154 -335 -288 -157
-134 -321 -276 -366 -315 -44 -38 -104 -90 -133 -115 -30 -25 -67 -56 -82 -70
l-29 -25 30 -53 c25 -43 34 -51 48 -43 9 5 60 25 112 44 52 20 160 61 240 92
80 31 204 79 275 106 72 27 139 53 150 58 11 5 43 17 70 27 28 9 54 21 59 26
6 4 16 8 24 8 8 0 28 7 45 15 29 13 153 61 347 134 121 46 313 121 335 131 82
36 316 121 323 116 6 -3 13 -31 17 -62 6 -52 9 -68 19 -127 4 -22 11 -64 21
-122 3 -16 8 -46 11 -65 9 -57 134 -813 139 -840 9 -57 66 -397 70 -420 2 -14
13 -81 25 -150 11 -69 28 -172 37 -230 22 -150 21 -148 84 -146 58 2 59 4 73
93 6 46 34 210 76 463 12 69 23 136 25 150 2 14 13 81 25 150 12 69 23 136 25
150 16 96 84 511 88 535 3 17 17 100 31 185 14 85 28 173 32 195 3 22 10 59
15 82 5 22 11 65 15 95 3 29 10 57 14 62 7 7 125 -36 550 -201 63 -25 171 -67
240 -93 111 -42 525 -202 790 -305 52 -20 104 -40 115 -45 25 -11 287 -110
298 -113 5 -1 21 21 37 50 l30 51 -88 73 c-48 41 -92 78 -98 84 -6 5 -37 33
-69 60 -32 28 -63 55 -69 60 -6 6 -105 91 -221 190 -207 177 -257 220 -279
240 -6 6 -40 35 -76 65 -70 60 -116 99 -134 115 -6 6 -43 37 -81 70 -39 33
-72 62 -75 65 -3 3 -34 30 -70 60 -36 30 -72 61 -81 70 -9 8 -27 24 -40 35
-44 36 -224 190 -244 208 -19 17 -19 18 10 40 15 12 40 33 55 47 14 14 50 45
80 70 30 25 57 47 60 50 3 3 48 41 100 85 52 44 97 82 100 85 3 3 32 28 65 56
33 28 173 147 310 264 138 117 273 232 300 255 129 110 271 231 281 240 6 5
35 30 64 55 30 25 87 73 127 108 l73 63 -27 47 c-15 26 -28 49 -29 51 -3 3
-386 -140 -764 -284 -253 -97 -961 -365 -1134 -430 -54 -20 -102 -33 -106 -28
-5 4 -11 31 -15 58 -8 63 -13 97 -25 160 -5 28 -12 66 -14 85 -3 19 -8 46 -10
60 -3 14 -14 81 -25 150 -12 69 -23 136 -26 150 -2 14 -20 124 -40 245 -20
121 -38 234 -41 250 -3 17 -7 41 -9 55 -2 14 -8 52 -14 85 -10 56 -15 86 -27
160 -2 17 -9 55 -14 85 -5 30 -11 69 -14 85 -7 43 -34 204 -40 240 -2 17 -14
86 -26 154 -11 68 -23 127 -26 132 -2 4 -29 7 -59 6 l-55 -2 -6 -45z"/>
</g>
</svg>
